<svg xmlns="http://www.w3.org/2000/svg" width="512" height="128" viewBox="0 0 512 128"><g fill-rule="evenodd" transform="translate(0 -.104)"><path d="M0,0 L128,0 L128,128 L0,128 Z M48,80 C65.673112,80 80,65.673112 80,48 C80,30.326888 65.673112,16 48,16 C30.326888,16 16,30.326888 16,48 C16,65.673112 30.326888,80 48,80 Z M80,112 C97.673112,112 112,97.673112 112,80 C112,62.326888 97.673112,48 80,48 C62.326888,48 48,62.326888 48,80 C48,97.673112 62.326888,112 80,112 Z"/><g transform="translate(176.44 14.96)"><path fill-rule="nonzero" d="M46.2,97.152 C57.156,97.152 70.488,93.06 76.956,82.104 L76.956,95.04 L89.76,95.04 L89.76,46.596 L41.712,46.596 L41.712,59.136 L77.088,59.136 C75.372,75.768 63.096,83.952 47.784,83.952 C27.72,83.952 14.784,70.884 14.784,49.104 C14.784,26.4 27.456,13.2 46.068,13.2 C59.532,13.2 72.072,20.328 74.976,31.548 L89.76,31.548 C87.252,14.256 70.884,0 47.388,0 C19.536,0 0,19.008 0,48.972 C0,76.56 18.216,97.152 46.2,97.152 Z"/><polygon fill-rule="nonzero" points="104.636 95.04 118.364 95.04 118.364 2.112 104.636 2.112"/><path fill-rule="nonzero" d="M160.696,96.624 C171.916,96.624 179.044,91.872 183.004,86.196 L183.004,95.04 L196.732,95.04 L196.732,28.248 L183.004,28.248 L183.004,37.224 C178.12,30.36 169.672,26.664 160.168,26.664 C143.8,26.664 128.356,38.016 128.356,62.04 C128.356,85.14 143.272,96.624 160.696,96.624 Z M162.808,83.82 C150.4,83.82 142.216,75.24 142.216,61.776 C142.216,46.992 151.06,39.468 162.544,39.468 C172.84,39.468 183.268,45.54 183.268,62.304 C183.268,77.616 173.368,83.82 162.808,83.82 Z"/><polygon fill-rule="nonzero" points="266.124 83.16 227.052 83.16 267.312 28.248 204.348 28.248 204.348 40.128 242.232 40.128 202.896 95.04 266.124 95.04"/><path fill-rule="nonzero" d="M302.384,96.624 C320.468,96.624 331.952,87.78 334.328,75.24 L319.94,75.24 C318.092,80.388 312.944,83.82 302.384,83.82 C290.636,83.82 282.584,77.88 281.66,66.792 L335.78,66.792 C338.024,44.616 325.88,26.664 302.384,26.664 C281.924,26.664 267.932,40.392 267.932,62.568 C267.932,83.16 280.076,96.624 302.384,96.624 Z M301.988,39.468 C313.34,39.468 320.204,44.88 321.656,55.572 L281.66,55.572 C282.98,44.484 291.164,39.468 301.988,39.468 Z"/></g></g></svg>